# xmcd
#
# Track frame offsets:
#  150
#  22625
#  44732
#  58639
#  84340
#  102367
#  121485
#  141282
#  160962
#  183542
#  201685
#  227722
#
# Disc length: 3381 seconds
#
# Revision: 0
# Processed by: cddbd v1.4PL0 Copyright (c) Steve Scherf et al.
# Submitted via: AltoMP3_Maker 3.0
#
DISCID=a80d330c
DTITLE=Danny O'Keefe  - Runnin' From The Devil
DYEAR=1900
DGENRE=
TTITLE0=Runnin' From The Devil
TTITLE1=Sheila
TTITLE2=Souvenirs
TTITLE3=Pieces of the Rain
TTITLE4=Can't Outrun the Years
TTITLE5=Well, Well, Well
TTITLE6=All My Friends
TTITLE7=Never Got Off the Ground
TTITLE8=Only An Ocean Away
TTITLE9=Hard Words
TTITLE10=Outlaw
TTITLE11=Cosmic Chain Gang
EXTD=
EXTT0=
EXTT1=
EXTT2=
EXTT3=
EXTT4=
EXTT5=
EXTT6=
EXTT7=
EXTT8=
EXTT9=
EXTT10=
EXTT11=
PLAYORDER=
